{
  "accessors": [
    {
      "bufferView": 2,
      "componentType": 5126,
      "count": 13341,
      "max": [
        1.0298899412155151,
        0.44527000188827515,
        0.6747819781303406
      ],
      "min": [
        -1.1153199672698975,
        -0.6363999843597412,
        -0.6788740158081055
      ],
      "type": "VEC3"
    },
    {
      "bufferView": 2,
      "byteOffset": 160092,
      "componentType": 5126,
      "count": 13341,
      "max": [
        1.0,
        1.0,
        1.0
      ],
      "min": [
        -1.0,
        -1.0,
        -1.0
      ],
      "type": "VEC3"
    },
    {
      "bufferView": 3,
      "componentType": 5126,
      "count": 13341,
      "max": [
        1.0,
        1.0,
        1.0,
        1.0
      ],
      "min": [
        -1.0,
        -1.0,
        -1.0,
        -1.0
      ],
      "type": "VEC4"
    },
    {
      "bufferView": 1,
      "componentType": 5126,
      "count": 13341,
      "max": [
        0.9841799736022949,
        0.9784110188484192
      ],
      "min": [
        0.04592389985918999,
        0.061006098985672
      ],
      "type": "VEC2"
    },
    {
      "bufferView": 0,
      "componentType": 5125,
      "count": 52044,
      "type": "SCALAR"
    },
    {
      "bufferView": 2,
      "byteOffset": 320184,
      "componentType": 5126,
      "count": 2560,
      "max": [
        0.8271329998970032,
        0.4108549952507019,
        0.5415930151939392
      ],
      "min": [
        -1.0,
        -0.5373049974441528,
        -0.5437629818916321
      ],
      "type": "VEC3"
    },
    {
      "bufferView": 2,
      "byteOffset": 350904,
      "componentType": 5126,
      "count": 2560,
      "max": [
        1.0,
        0.9999213814735413,
        0.9997726678848267
      ],
      "min": [
        -1.0,
        -1.0,
        -0.9997724890708923
      ],
      "type": "VEC3"
    },
    {
      "bufferView": 3,
      "byteOffset": 213456,
      "componentType": 5126,
      "count": 2560,
      "max": [
        1.0,
        0.9859775304794312,
        1.0,
        1.0
      ],
      "min": [
        -0.9998535513877869,
        -0.9992623329162598,
        -1.0,
        -1.0
      ],
      "type": "VEC4"
    },
    {
      "bufferView": 1,
      "byteOffset": 106728,
      "componentType": 5126,
      "count": 2560,
      "max": [
        1.0,
        0.9982619881629944
      ],
      "min": [
        0.0,
        0.0
      ],
      "type": "VEC2"
    },
    {
      "bufferView": 0,
      "byteOffset": 208176,
      "componentType": 5125,
      "count": 11070,
      "type": "SCALAR"
    },
    {
      "bufferView": 2,
      "byteOffset": 381624,
      "componentType": 5126,
      "count": 2056,
      "max": [
        1.0,
        0.5373049974441528,
        0.5862380266189575
      ],
      "min": [
        -0.972353994846344,
        -0.4687049984931946,
        -0.5862380266189575
      ],
      "type": "VEC3"
    },
    {
      "bufferView": 2,
      "byteOffset": 406296,
      "componentType": 5126,
      "count": 2056,
      "max": [
        1.0,
        1.0,
        1.0
      ],
      "min": [
        -1.0,
        -1.0,
        -1.0
      ],
      "type": "VEC3"
    },
    {
      "bufferView": 3,
      "byteOffset": 254416,
      "componentType": 5126,
      "count": 2056,
      "max": [
        1.0,
        0.999936580657959,
        0.9999351501464844,
        1.0
      ],
      "min": [
        -1.0,
        -0.9994559288024902,
        -1.0,
        -1.0
      ],
      "type": "VEC4"
    },
    {
      "bufferView": 1,
      "byteOffset": 127208,
      "componentType": 5126,
      "count": 2056,
      "max": [
        0.9662719964981079,
        0.9828389883041382
      ],
      "min": [
        0.017774099484086037,
        0.01320559997111559
      ],
      "type": "VEC2"
    },
    {
      "bufferView": 0,
      "byteOffset": 252456,
      "componentType": 5125,
      "count": 8184,
      "type": "SCALAR"
    }
  ],
  "asset": {
    "extras": {
      "author": "Matt Rafferty (https://sketchfab.com/Matt-AeroLab)",
      "license": "CC-BY-4.0 (http://creativecommons.org/licenses/by/4.0/)",
      "source": "https://sketchfab.com/3d-models/abandonded-roller-coaster-cart-e557ecfcacb74d148ca25422d7685331",
      "title": "Abandonded Roller Coaster Cart"
    },
    "generator": "Sketchfab-12.67.0",
    "version": "2.0"
  },
  "bufferViews": [
    {
      "buffer": 0,
      "byteLength": 285192,
      "name": "floatBufferViews",
      "target": 34963
    },
    {
      "buffer": 0,
      "byteLength": 143656,
      "byteOffset": 285192,
      "byteStride": 8,
      "name": "floatBufferViews",
      "target": 34962
    },
    {
      "buffer": 0,
      "byteLength": 430968,
      "byteOffset": 428848,
      "byteStride": 12,
      "name": "floatBufferViews",
      "target": 34962
    },
    {
      "buffer": 0,
      "byteLength": 287312,
      "byteOffset": 859816,
      "byteStride": 16,
      "name": "floatBufferViews",
      "target": 34962
    }
  ],
  "buffers": [
    {
      "byteLength": 1147128,
      "uri": "scene.bin"
    }
  ],
  "images": [
    {
      "uri": "textures/RollerCoasterCart_blinn2SG1_baseColor.jpeg"
    },
    {
      "uri": "textures/RollerCoasterCart_blinn2SG1_metallicRoughness.png"
    },
    {
      "uri": "textures/RollerCoasterCart_blinn2SG1_emissive.jpeg"
    },
    {
      "uri": "textures/RollerCoasterCart_blinn2SG1_normal.png"
    },
    {
      "uri": "textures/RollerCoasterCart_blinn1SG1_baseColor.jpeg"
    },
    {
      "uri": "textures/RollerCoasterCart_blinn1SG1_metallicRoughness.png"
    },
    {
      "uri": "textures/RollerCoasterCart_blinn1SG1_normal.png"
    },
    {
      "uri": "textures/lambert1_baseColor.jpeg"
    },
    {
      "uri": "textures/lambert1_metallicRoughness.png"
    },
    {
      "uri": "textures/lambert1_normal.png"
    }
  ],
  "materials": [
    {
      "doubleSided": true,
      "emissiveFactor": [
        1.0,
        1.0,
        1.0
      ],
      "emissiveTexture": {
        "index": 2
      },
      "name": "RollerCoasterCart_blinn2SG1",
      "normalTexture": {
        "index": 3
      },
      "occlusionTexture": {
        "index": 1
      },
      "pbrMetallicRoughness": {
        "baseColorTexture": {
          "index": 0
        },
        "metallicRoughnessTexture": {
          "index": 1
        }
      }
    },
    {
      "doubleSided": true,
      "name": "RollerCoasterCart_blinn1SG1",
      "normalTexture": {
        "index": 6
      },
      "occlusionTexture": {
        "index": 5
      },
      "pbrMetallicRoughness": {
        "baseColorTexture": {
          "index": 4
        },
        "metallicRoughnessTexture": {
          "index": 5
        }
      }
    },
    {
      "doubleSided": true,
      "name": "lambert1",
      "normalTexture": {
        "index": 9
      },
      "pbrMetallicRoughness": {
        "baseColorTexture": {
          "index": 7
        },
        "metallicRoughnessTexture": {
          "index": 8
        }
      }
    }
  ],
  "meshes": [
    {
      "name": "defaultMaterial",
      "primitives": [
        {
          "attributes": {
            "NORMAL": 1,
            "POSITION": 0,
            "TANGENT": 2,
            "TEXCOORD_0": 3
          },
          "indices": 4,
          "material": 2,
          "mode": 4
        }
      ]
    },
    {
      "name": "defaultMaterial",
      "primitives": [
        {
          "attributes": {
            "NORMAL": 6,
            "POSITION": 5,
            "TANGENT": 7,
            "TEXCOORD_0": 8
          },
          "indices": 9,
          "material": 1,
          "mode": 4
        }
      ]
    },
    {
      "name": "defaultMaterial",
      "primitives": [
        {
          "attributes": {
            "NORMAL": 11,
            "POSITION": 10,
            "TANGENT": 12,
            "TEXCOORD_0": 13
          },
          "indices": 14,
          "material": 0,
          "mode": 4
        }
      ]
    }
  ],
  "nodes": [
    {
      "children": [
        1
      ],
      "matrix": [
        1.0,
        0.0,
        0.0,
        0.0,
        0.0,
        2.220446049250313e-16,
        -1.0,
        0.0,
        0.0,
        1.0,
        2.220446049250313e-16,
        0.0,
        0.0,
        0.0,
        0.0,
        1.0
      ],
      "name": "Sketchfab_model"
    },
    {
      "children": [
        2,
        4,
        6
      ],
      "matrix": [
        1.0,
        0.0,
        0.0,
        0.0,
        0.0,
        -4.371139006309477e-08,
        0.999999999999999,
        0.0,
        0.0,
        -0.999999999999999,
        -4.371139006309477e-08,
        0.0,
        0.0,
        0.0,
        0.0,
        1.0
      ],
      "name": "Collada visual scene group"
    },
    {
      "children": [
        3
      ],
      "name": "transform47"
    },
    {
      "mesh": 0,
      "name": "defaultMaterial"
    },
    {
      "children": [
        5
      ],
      "name": "polySurface3"
    },
    {
      "mesh": 1,
      "name": "defaultMaterial"
    },
    {
      "children": [
        7
      ],
      "name": "RollerCoasterCart:RollerCoasterCart:polySurface76_f_4_"
    },
    {
      "mesh": 2,
      "name": "defaultMaterial"
    }
  ],
  "samplers": [
    {
      "magFilter": 9729,
      "minFilter": 9987,
      "wrapS": 10497,
      "wrapT": 10497
    }
  ],
  "scene": 0,
  "scenes": [
    {
      "name": "Sketchfab_Scene",
      "nodes": [
        0
      ]
    }
  ],
  "textures": [
    {
      "sampler": 0,
      "source": 0
    },
    {
      "sampler": 0,
      "source": 1
    },
    {
      "sampler": 0,
      "source": 2
    },
    {
      "sampler": 0,
      "source": 3
    },
    {
      "sampler": 0,
      "source": 4
    },
    {
      "sampler": 0,
      "source": 5
    },
    {
      "sampler": 0,
      "source": 6
    },
    {
      "sampler": 0,
      "source": 7
    },
    {
      "sampler": 0,
      "source": 8
    },
    {
      "sampler": 0,
      "source": 9
    }
  ]
}
